<svg xmlns="http://www.w3.org/2000/svg" width="96" height="24" viewBox="0 0 96 24">
    <defs>
        <style>
            .prefix__cls-1{fill:#fff}
        </style>
    </defs>
    <g id="prefix__logo_main" transform="translate(-110 -349)">
        <g id="prefix__그룹_63" data-name="그룹 63" transform="translate(110 349)">
            <path id="prefix__패스_69" d="M310.934 199.672v-.072H300.45a4.819 4.819 0 0 0-4.839 4.8V222a1.607 1.607 0 0 0 1.613 1.6h1.613a1.607 1.607 0 0 0 1.613-1.6v-6.4h9.677v6.4a1.607 1.607 0 0 0 1.613 1.6h1.613a1.607 1.607 0 0 0 1.613-1.6v-17.6a4.809 4.809 0 0 0-4.032-4.728zM300.45 204.4h9.677v6.4h-9.677z" class="prefix__cls-1" data-name="패스 69" transform="translate(-295.611 -199.6)"/>
            <path id="prefix__패스_70" d="M374.934 199.672v-.072H364.45a4.819 4.819 0 0 0-4.839 4.8V222a1.607 1.607 0 0 0 1.613 1.6h1.613a1.607 1.607 0 0 0 1.613-1.6v-6.4h9.677v6.4a1.607 1.607 0 0 0 1.613 1.6h1.613a1.607 1.607 0 0 0 1.613-1.6v-17.6a4.809 4.809 0 0 0-4.032-4.728zM364.45 204.4h9.677v6.4h-9.677z" class="prefix__cls-1" data-name="패스 70" transform="translate(-307.762 -199.6)"/>
            <path id="prefix__패스_71" d="M346.934 199.672v-.072h-13.71a1.607 1.607 0 0 0-1.613 1.6V222a1.607 1.607 0 0 0 1.613 1.6h1.613a1.607 1.607 0 0 0 1.613-1.6v-6.4h10.484v-.072a4.809 4.809 0 0 0 4.032-4.728v-6.4a4.809 4.809 0 0 0-4.032-4.728zM336.45 204.4h9.677v6.4h-9.677z" class="prefix__cls-1" data-name="패스 71" transform="translate(-302.446 -199.6)"/>
            <path id="prefix__패스_72" d="M407.8 200.421l.012-.021h-.024a1.614 1.614 0 0 0-1.4-.8h-2.144a1.614 1.614 0 0 0-1.39.79l-5.983 10.1-6.124-10.117a1.617 1.617 0 0 0-1.383-.776h-2.144a1.615 1.615 0 0 0-1.4.8h-.02l.013.021a1.587 1.587 0 0 0 .021 1.6l8.643 14.388V222a1.607 1.607 0 0 0 1.613 1.6h1.613a1.607 1.607 0 0 0 1.613-1.6v-5.9l8.458-14.078a1.589 1.589 0 0 0 .026-1.601z" class="prefix__cls-1" data-name="패스 72" transform="translate(-312.006 -199.6)"/>
        </g>
        <path id="prefix__사각형_642" d="M0 0H29.884V4.831H0z" class="prefix__cls-1" data-name="사각형 642" transform="translate(113.116 360.169)"/>
    </g>
</svg>
